<svg width="26" height="26" viewBox="0 0 26 26" fill="none" xmlns="http://www.w3.org/2000/svg">
<path d="M8.66138 10.6307L6.43188 12.8602C5.51756 13.7746 5.00391 15.0146 5.00391 16.3077C5.00391 17.6007 5.51756 18.8408 6.43188 19.7551C7.3462 20.6694 8.58628 21.1831 9.87932 21.1831C11.1724 21.1831 12.4124 20.6694 13.3268 19.7551L16.2973 16.783C16.8486 16.2316 17.2596 15.5559 17.4958 14.8128C17.732 14.0696 17.7865 13.2806 17.6547 12.5121C17.5229 11.7435 17.2087 11.0178 16.7383 10.3958C16.268 9.7738 15.6553 9.27371 14.9518 8.9375L13.9995 9.88975C13.9028 9.9866 13.8188 10.0952 13.7493 10.2131C14.2929 10.3694 14.7863 10.6648 15.1807 11.0702C15.5751 11.4756 15.8569 11.977 15.9983 12.5247C16.1396 13.0723 16.1355 13.6474 15.9864 14.1931C15.8374 14.7387 15.5485 15.236 15.1484 15.6357L12.1795 18.6062C11.5697 19.2161 10.7426 19.5587 9.88013 19.5587C9.0177 19.5587 8.19059 19.2161 7.58076 18.6062C6.97092 17.9964 6.62832 17.1693 6.62832 16.3069C6.62832 15.4444 6.97092 14.6173 7.58076 14.0075L8.86938 12.7205C8.68757 12.0392 8.61733 11.3329 8.66138 10.6291V10.6307Z" fill="#868174"/>
<path d="M11.703 7.59199C11.1516 8.14342 10.7406 8.81907 10.5044 9.56222C10.2682 10.3054 10.2137 11.0944 10.3455 11.8629C10.4773 12.6315 10.7916 13.3572 11.2619 13.9792C11.7322 14.6012 12.3449 15.1013 13.0485 15.4375L14.3079 14.1765C13.7569 14.0287 13.2546 13.7385 12.8513 13.3351C12.448 12.9316 12.158 12.4291 12.0105 11.8781C11.8629 11.3271 11.863 10.7469 12.0107 10.196C12.1584 9.64498 12.4485 9.14258 12.8519 8.73924L15.8208 5.76874C16.4306 5.15891 17.2577 4.8163 18.1201 4.8163C18.9826 4.8163 19.8097 5.15891 20.4195 5.76874C21.0293 6.37857 21.3719 7.20568 21.3719 8.06811C21.3719 8.93055 21.0293 9.75766 20.4195 10.3675L19.1309 11.6545C19.3129 12.337 19.3828 13.0439 19.3389 13.7459L21.5684 11.5164C22.4827 10.602 22.9964 9.36196 22.9964 8.06892C22.9964 6.77588 22.4827 5.5358 21.5684 4.62149C20.6541 3.70717 19.414 3.19351 18.1209 3.19351C16.8279 3.19351 15.5878 3.70717 14.6735 4.62149L11.703 7.59199Z" fill="#868174"/>
</svg>
