<svg width="20" height="18" viewBox="0 0 20 18" fill="none" xmlns="http://www.w3.org/2000/svg">
<path d="M9.5 17.06C7.75333 17.06 6.24 16.7667 4.96 16.18C3.68 15.6067 2.69333 14.7067 2 13.48C1.30667 12.2533 0.96 10.68 0.96 8.76C0.96 7.16 1.20667 5.80667 1.7 4.7C2.19333 3.59333 2.86667 2.7 3.72 2.02C4.58667 1.32667 5.58 0.826666 6.7 0.52C7.82 0.2 9.00667 0.0399997 10.26 0.0399997C11.5267 0.0399997 12.6933 0.186666 13.76 0.479999C14.8267 0.759999 15.7533 1.2 16.54 1.8C17.34 2.4 17.96 3.18 18.4 4.14C18.84 5.08667 19.06 6.23333 19.06 7.58C19.06 8.48667 18.96 9.28 18.76 9.96C18.5733 10.6267 18.32 11.1933 18 11.66C17.68 12.1133 17.3133 12.48 16.9 12.76C16.5 13.04 16.0867 13.2467 15.66 13.38C15.2467 13.5 14.8467 13.56 14.46 13.56C13.9 13.56 13.46 13.48 13.14 13.32C12.8333 13.16 12.6067 12.9733 12.46 12.76C12.3267 12.5467 12.2467 12.3667 12.22 12.22H12.12C11.8933 12.5 11.6267 12.7467 11.32 12.96C11.0133 13.16 10.66 13.3133 10.26 13.42C9.87333 13.5267 9.43333 13.58 8.94 13.58C8.63333 13.58 8.30667 13.5467 7.96 13.48C7.61333 13.4 7.28667 13.2667 6.98 13.08C6.67333 12.88 6.42 12.6067 6.22 12.26C6.03333 11.9133 5.94 11.4667 5.94 10.92C5.94 10.2667 6.08667 9.72667 6.38 9.3C6.68667 8.87333 7.11333 8.54 7.66 8.3C8.22 8.04667 8.87333 7.87333 9.62 7.78C10.3667 7.67333 11.18 7.62 12.06 7.62V6.68C12.06 6.36 12.0067 6.08667 11.9 5.86C11.8067 5.62 11.6267 5.43333 11.36 5.3C11.0933 5.15333 10.7 5.08 10.18 5.08C9.68667 5.08 9.3 5.14667 9.02 5.28C8.74 5.4 8.54 5.56 8.42 5.76C8.31333 5.96 8.26 6.16 8.26 6.36V6.64H6.42C6.40667 6.57333 6.4 6.51333 6.4 6.46C6.4 6.39333 6.4 6.32 6.4 6.24C6.4 5.66667 6.56 5.18667 6.88 4.8C7.2 4.4 7.64667 4.1 8.22 3.9C8.80667 3.68667 9.48 3.58 10.24 3.58C11.08 3.58 11.7733 3.69333 12.32 3.92C12.8667 4.14667 13.2733 4.48 13.54 4.92C13.82 5.34667 13.96 5.87333 13.96 6.5V11.26C13.96 11.5667 14.0333 11.7867 14.18 11.92C14.34 12.04 14.5667 12.1 14.86 12.1C15.2867 12.1 15.7133 11.96 16.14 11.68C16.5667 11.4 16.9133 10.9333 17.18 10.28C17.46 9.61333 17.6 8.70667 17.6 7.56C17.6 6.10667 17.2867 4.92 16.66 4C16.0333 3.08 15.1667 2.40667 14.06 1.98C12.9667 1.55333 11.6933 1.34 10.24 1.34C8.64 1.34 7.25333 1.61333 6.08 2.16C4.90667 2.69333 4 3.51333 3.36 4.62C2.72 5.72667 2.4 7.11333 2.4 8.78C2.4 11.1 2.98 12.84 4.14 14C5.3 15.1733 7.08667 15.76 9.5 15.76C9.86 15.76 10.2733 15.7333 10.74 15.68C11.22 15.6267 11.6867 15.5533 12.14 15.46C12.5933 15.3667 12.96 15.26 13.24 15.14V16.52C12.92 16.6267 12.5267 16.72 12.06 16.8C11.6067 16.88 11.1467 16.94 10.68 16.98C10.2267 17.0333 9.83333 17.06 9.5 17.06ZM9.48 12.06C9.86667 12.06 10.2133 12 10.52 11.88C10.84 11.76 11.1133 11.5933 11.34 11.38C11.58 11.1667 11.76 10.9067 11.88 10.6C12 10.2933 12.06 9.94667 12.06 9.56V9C11.2333 9 10.5067 9.05333 9.88 9.16C9.25333 9.25333 8.76 9.42667 8.4 9.68C8.05333 9.92 7.88 10.28 7.88 10.76C7.88 11.04 7.94 11.28 8.06 11.48C8.19333 11.6667 8.37333 11.8133 8.6 11.92C8.84 12.0133 9.13333 12.06 9.48 12.06Z" fill="#868174"/>
</svg>
