<svg width="128" height="114" viewBox="0 0 128 114" fill="none" xmlns="http://www.w3.org/2000/svg">
<path opacity="0.05" d="M28.9169 57.2135C36.2879 57.2135 42.6667 59.7753 48.0532 64.8989C53.4396 70.0225 56.1329 76.8539 56.1329 85.3933C56.1329 94.2172 53.2979 101.191 47.6279 106.315C41.9579 111.438 35.7209 114 28.9169 114C20.979 114 14.175 110.869 8.50498 104.607C2.83499 98.3446 0 89.5206 0 78.1348C0 63.9026 3.82724 49.9551 11.4817 36.2921C19.1362 22.3446 29.3422 10.2472 42.0997 0L53.5814 11.9551C37.9889 27.0412 28.6334 42.1273 25.5149 57.2135H28.9169ZM100.359 57.2135C107.73 57.2135 114.109 59.7753 119.495 64.8989C125.165 70.0225 128 76.8539 128 85.3933C128 94.2172 125.165 101.191 119.495 106.315C113.825 111.438 107.446 114 100.359 114C92.4208 114 85.6168 110.869 79.9468 104.607C74.5604 98.3446 71.8671 89.5206 71.8671 78.1348C71.8671 63.9026 75.5526 49.9551 82.9236 36.2921C90.5781 22.3446 100.784 10.2472 113.542 0L125.449 11.9551C109.856 27.0412 100.501 42.1273 97.3821 57.2135H100.359Z" fill="white"/>
</svg>
